#!OML:ASF F:\VICON\USERDATA\INSTALL\rory3\rory3.ASF
:FULLY-SPECIFIED
:DEGREES
752
root -0.0814098 17.6866 25.5302 -2.01498 3.01021 2.2511
lowerback 8.28366 -2.07856 -4.33171
upperback -0.120135 -3.13476 1.13234
thorax -4.47541 -1.443 3.98508
lowerneck -16.1635 -2.59648 -2.42313
upperneck 21.3999 -3.19735 0.855036
head 9.4802 -1.59405 0.287943
rclavicle 1.43001e-014 -3.18055e-015
rhumerus -38.1162 -27.586 -71.8466
rradius 19.9804
rwrist 9.99204
rhand -17.9124 21.3682
rfingers 7.12502
rthumb 8.35485 -8.44653
lclavicle 1.43001e-014 -3.18055e-015
lhumerus -21.8495 -1.51661 78.3807
lradius 32.4253
lwrist 9.8862
lhand -31.5612 15.8894
lfingers 7.12502
lthumb -4.82508 45.8144
rfemur -27.824 4.091 19.7772
rtibia 26.5997
rfoot 0.0647953 -9.21483
rtoes -2.4394
lfemur 19.3767 -3.42491 -26.7228
ltibia 19.2183
lfoot -8.81988 -11.4336
ltoes -14.0743
753
root -0.087893 17.7053 25.7407 -2.13728 3.10117 1.59959
lowerback 8.61943 -2.16669 -3.55187
upperback -0.363368 -3.18237 1.31308
thorax -4.94535 -1.46545 3.76701
lowerneck -16.3355 -2.55538 -2.27554
upperneck 21.9906 -3.0862 0.458505
head 9.70892 -1.57522 0.134894
rclavicle 1.3654e-014 -5.1684e-015
rhumerus -38.5488 -27.8568 -71.3282
rradius 19.6855
rwrist 10.626
rhand -17.7244 21.2529
rfingers 7.12502
rthumb 8.53629 -8.55458
lclavicle 1.3654e-014 -5.1684e-015
lhumerus -22.555 -0.80786 78.5268
lradius 32.2618
lwrist 9.73029
lhand -31.6613 14.1925
lfingers 7.12502
lthumb -4.92174 44.1153
rfemur -27.4632 3.81719 20.7014
rtibia 27.2119
rfoot -0.02532 -8.73663
rtoes 0.785882
lfemur 18.7423 -3.48798 -25.8457
ltibia 21.6639
lfoot -7.78114 -12.4094
ltoes -15.1628
754
root -0.096319 17.7254 25.9513 -2.28272 2.99086 0.813822
lowerback 8.78471 -2.197 -2.71827
upperback -0.468707 -3.12968 1.54775
thorax -5.18393 -1.45069 3.55008
lowerneck -16.2577 -2.50868 -2.41206
upperneck 22.138 -3.00142 0.5131
head 9.74872 -1.54173 0.187817
rclavicle 1.73999e-014 -3.57812e-015
rhumerus -38.8269 -28.3988 -70.7966
rradius 19.3475
rwrist 11.2625
rhand -17.7459 20.7162
rfingers 7.12502
rthumb 8.51558 -9.09209
lclavicle 1.73999e-014 -3.57812e-015
lhumerus -23.0625 0.0678881 78.651
lradius 32.1623
lwrist 9.39056
lhand -31.2915 14.3044
lfingers 7.12502
lthumb -4.56458 44.2352
rfemur -27.0549 3.60669 21.8586
rtibia 27.9716
rfoot 0.150983 -8.16999
rtoes 2.92527
lfemur 17.9825 -3.43694 -24.773
ltibia 24.1379
lfoot -5.66401 -13.8433
ltoes -14.2127
755
root -0.102142 17.7313 26.1678 -2.50134 2.87368 0.319121
lowerback 8.74348 -2.19762 -2.15676
upperback -0.40329 -3.06369 1.67957
thorax -5.11875 -1.43377 3.35963
lowerneck -16.137 -2.47837 -2.5007
upperneck 22.0837 -2.95223 0.571023
head 9.70866 -1.52021 0.231
rclavicle -5.33364e-014 1.78906e-014
rhumerus -38.8506 -28.5534 -70.617
rradius 19.0855
rwrist 11.3577
rhand -17.7905 20.9279
rfingers 7.12502
rthumb 8.47251 -8.8821
lclavicle -5.33364e-014 1.78906e-014
lhumerus -23.2215 0.659383 78.7557
lradius 31.8094
lwrist 9.06577
lhand -31.3123 15.5501
lfingers 7.12502
lthumb -4.58469 45.4805
rfemur -26.4993 3.37529 22.6793
rtibia 28.7753
rfoot 0.122982 -7.37596
rtoes 5.97383
lfemur 17.3572 -3.26847 -23.9879
ltibia 26.5814
lfoot -3.28385 -14.9952
ltoes -13.2224
756
root -0.104804 17.7475 26.383 -2.74343 2.8732 -0.00864785
lowerback 8.7763 -2.23994 -1.74
upperback -0.328898 -3.07175 1.77887
thorax -5.0748 -1.44912 3.22926
lowerneck -16.1192 -2.47905 -2.54304
upperneck 22.0336 -2.91237 0.452543
head 9.68597 -1.51897 0.202593
rclavicle -5.77407e-014 1.35174e-014
rhumerus -38.876 -28.7393 -70.4133
rradius 18.9742
rwrist 11.7084
rhand -17.5245 21.1806
rfingers 7.12502
rthumb 8.72923 -8.61892
lclavicle -5.77407e-014 1.35174e-014
lhumerus -23.2436 1.30257 78.929
lradius 31.1541
lwrist 8.90937
lhand -31.136 16.811
lfingers 7.12502
lthumb -4.41443 46.745
rfemur -25.896 3.15661 23.2283
rtibia 29.563
rfoot -0.285732 -6.67568
rtoes 9.47871
lfemur 16.6617 -3.06226 -23.3273
ltibia 28.914
lfoot -0.399179 -16.0757
ltoes -12.5262
757
root -0.120293 17.7747 26.6026 -2.89511 2.80103 -0.0582814
lowerback 8.77307 -2.19886 -1.76468
upperback -0.32794 -3.01784 1.81309
thorax -5.07244 -1.4215 3.27203
lowerneck -16.1935 -2.53533 -2.56095
upperneck 22.0789 -2.96779 0.384575
head 9.71608 -1.55385 0.173435
rclavicle 3.40263e-014 -1.74931e-014
rhumerus -38.9789 -29.1337 -70.091
rradius 18.8309
rwrist 12.1576
rhand -17.3467 20.7757
rfingers 7.12502
rthumb 8.90083 -9.01656
lclavicle 3.40263e-014 -1.74931e-014
lhumerus -23.4234 1.82657 79.1207
lradius 30.6051
lwrist 8.96877
lhand -30.9687 18.7883
lfingers 7.12502
lthumb -4.25296 48.7256
rfemur -25.3753 3.37741 23.4359
rtibia 30.3055
rfoot -0.887084 -6.77678
rtoes 10.6939
lfemur 15.7487 -2.67742 -22.8479
ltibia 31.1609
lfoot 2.86075 -17.1637
ltoes -12.0311
758
root -0.141067 17.7963 26.8179 -3.12059 2.63192 -0.188117
lowerback 8.83219 -2.12607 -1.78535
upperback -0.330004 -2.92121 1.85985
thorax -5.11094 -1.37182 3.32371
lowerneck -15.934 -2.52034 -2.62703
upperneck 21.9693 -2.97266 0.532276
head 9.63239 -1.54563 0.239001
rclavicle 4.13084e-014 -3.22031e-014
rhumerus -39.0787 -29.0872 -70.0787
rradius 18.9539
rwrist 12.1246
rhand -17.0268 20.8126
rfingers 7.12502
rthumb 9.20949 -8.96627
lclavicle 4.13084e-014 -3.22031e-014
lhumerus -23.949 2.08049 79.2482
lradius 30.5068
lwrist 8.96457
lhand -30.7713 20.3773
lfingers 7.12502
lthumb -4.06227 50.3183
rfemur -24.6568 3.67921 23.7927
rtibia 30.8173
rfoot -1.4775 -7.22075
rtoes 10.2599
lfemur 14.7704 -2.14635 -22.2265
ltibia 33.5215
lfoot 5.92406 -18.4336
ltoes -11.671
